<?xml version="1.0" encoding="utf-8"?>
<!-- Generator: Adobe Illustrator 22.0.1, SVG Export Plug-In . SVG Version: 6.00 Build 0)  -->
<svg version="1.1" id="Слой_1" xmlns="http://www.w3.org/2000/svg" xmlns:xlink="http://www.w3.org/1999/xlink" x="0px" y="0px"
	 viewBox="0 0 171 75" style="enable-background:new 0 0 171 75;" xml:space="preserve">
<style type="text/css">
	.st0{fill:#C0D7E9;}
	.st1{fill:#FFFFFF;}
	.st2{fill:none;stroke:#FFFFFF;stroke-width:3;stroke-miterlimit:10;}
</style>
<g>
	<path class="st0" d="M0,73.5h4.7c14.2,0,27.9-5.7,38-15.7l40.5-40.5c0.8-0.8,1.5-1.5,2.3-2.2l0,0C75.7,6.4,63,1.5,49.7,1.5H0
		L0,73.5z"/>
	<path class="st1" d="M121.4,1.5c-13.3,0-26,4.9-35.8,13.6l0,0C75.7,6.4,63,1.5,49.7,1.5H121.4z"/>
	<path class="st2" d="M0,73.5c10.3,0.7,21.3-0.3,30.3-6.3c24-16,38-39,61-57c9-6,19-8,29.5-8.7"/>
</g>
</svg>
