<?xml version="1.0" encoding="utf-8"?>
<!-- Generator: Adobe Illustrator 22.0.1, SVG Export Plug-In . SVG Version: 6.00 Build 0)  -->
<svg version="1.1" id="Слой_1" xmlns="http://www.w3.org/2000/svg" xmlns:xlink="http://www.w3.org/1999/xlink" x="0px" y="0px"
	 viewBox="0 0 116.6 75" style="enable-background:new 0 0 116.6 75;" xml:space="preserve">
<style type="text/css">
	.st0{fill:#4EBA74;stroke:#FFFFFF;stroke-width:3;stroke-miterlimit:10;}
</style>
<path class="st0" d="M116.6,73.5H0c14.2,0,27.9-5.7,38-15.7l40.5-40.5c0.8-0.8,1.5-1.5,2.3-2.2c0.2-0.2,0.4-0.4,0.7-0.6
	c0.3-0.3,0.7-0.5,1-0.8c0.7-0.6,1.4-1.1,2.1-1.6c0,0,0.1,0,0.1-0.1c0.7-0.5,1.3-1,2-1.4c0,0,0,0,0.1,0c0.4-0.2,0.7-0.5,1.1-0.7
	c0.4-0.2,0.7-0.5,1.1-0.7c0.4-0.2,0.8-0.5,1.1-0.7c0.4-0.2,0.8-0.4,1.2-0.6C92,7.4,92.8,7,93.5,6.7c0.4-0.2,0.8-0.4,1.2-0.5
	c0.3-0.2,0.7-0.3,1-0.4c1-0.4,2-0.8,3.1-1.2c0.3-0.1,0.6-0.2,0.9-0.3c0.7-0.3,1.5-0.5,2.2-0.7c1-0.3,2-0.5,3-0.8
	c0.4-0.1,0.7-0.1,1.1-0.2c0.3-0.1,0.6-0.1,0.9-0.2c0.3-0.1,0.7-0.1,1-0.2c0.1,0,0.1,0,0.2,0c0.3-0.1,0.7-0.1,1-0.2
	c0.5-0.1,1.1-0.1,1.6-0.2c0.3,0,0.6-0.1,0.9-0.1c0.8-0.1,1.6-0.1,2.5-0.2c0.8,0,1.7-0.1,2.5-0.1"/>
</svg>
